<svg height="512pt" viewBox="0 -34 512 512" width="512pt" xmlns="http://www.w3.org/2000/svg"><path d="m270.78125 7.5h-29.5625l-232.558594 402.804688c6.570313 11.378906 8.210938 14.222656 14.78125 25.601562h465.117188c6.570312-11.378906 8.210937-14.222656 14.78125-25.601562zm0 0" fill="#e5ebf5"/><path d="m48.707031 400.933594 204.421875-354.066406h5.742188l204.421875 354.066406c-1.277344 2.210937-1.59375 2.765625-2.871094 4.976562h-408.84375c-1.277344-2.210937-1.59375-2.765625-2.871094-4.976562zm0 0" fill="#f8e868"/><path d="m275.996094 76.527344-17.125-29.660156h-5.742188l-204.421875 354.066406c1.277344 2.210937 1.59375 2.765625 2.871094 4.976562h39.996094c-1.277344-2.210937-1.597657-2.765625-2.871094-4.976562zm0 0" fill="#e39c2d"/><path d="m275.996094 16.535156-5.214844-9.035156h-29.5625l-232.558594 402.804688c6.566406 11.378906 8.210938 14.222656 14.78125 25.601562h39.996094c-6.570312-11.378906-8.214844-14.222656-14.78125-25.601562zm0 0" fill="#cad8ea"/><path d="m270.855469 302.457031h-29.710938c-3.003906-3.003906-4.691406-4.6875-7.695312-7.691406v-130.902344h45.101562v130.902344c-3.007812 3.003906-4.691406 4.6875-7.695312 7.691406zm0 0" fill="#72869e"/><path d="m253.449219 163.863281h-20v130.902344c3.003906 3.003906 4.691406 4.6875 7.695312 7.691406h19.996094c-3.003906-3.003906-4.6875-4.6875-7.691406-7.691406zm0 0" fill="#536275"/><path d="m233.449219 330.8125h45.101562v45.101562h-45.101562zm0 0" fill="#72869e"/><path d="m233.449219 330.8125h20v45.101562h-20zm0 0" fill="#536275"/><path d="m275.996094 141.367188h-14.996094v-15h14.996094zm-24.996094 0h-15v-15h15zm0 0" fill="#fff"/><path d="m400.429688 217.058594-12.988282 7.5 107.238282 185.746094-10.449219 18.101562h-456.460938l-10.453125-18.101562 228.230469-395.304688h20.90625l107.238281 185.746094 12.988282-7.5-111.566407-193.246094h-38.222656l-236.890625 410.304688 19.109375 33.101562h473.777344l19.113281-33.101562zm0 0"/><path d="m125.15625 413.40625h339.59375l7.203125-12.472656-208.75-361.566406h-14.40625l-208.75 361.566406 7.199219 12.472656h57.914062v-14.996094h-46.335937l197.175781-341.519531 197.175781 341.519531h-328.019531zm0 0"/><path d="m286.046875 229.558594v-73.195313h-60.097656v141.507813l12.089843 12.085937h35.921876l12.085937-12.085937v-48.3125h-14.996094v42.097656l-3.300781 3.304688h-23.5l-3.300781-3.304688v-120.292969h30.101562v58.195313zm0 0"/><path d="m225.949219 383.410156h60.097656v-60.097656h-60.097656zm15-45.097656h30.101562v30.101562h-30.101562zm0 0"/></svg>